<svg xmlns="http://www.w3.org/2000/svg" version="1.1" xmlns:xlink="http://www.w3.org/1999/xlink" xmlns:svgjs="http://svgjs.com/svgjs" width="512" height="512" x="0" y="0" viewBox="0 0 512 512" style="enable-background:new 0 0 512 512" xml:space="preserve"><g><path fill="#d9ddff" d="M454.891 316.203a7.726 7.726 0 0 0-7.726 7.726v108.592c0 27.181-22.19 49.293-49.465 49.293h-64.766a7.726 7.726 0 1 0 0 15.452H397.7c35.796 0 64.918-29.045 64.918-64.746V323.93a7.727 7.727 0 0 0-7.727-7.727z" data-original="#d9ddff"></path><path fill="#7776d0" d="M312.095 512h41.025c12.252 0 22.184-9.932 22.184-22.184s-9.932-22.184-22.184-22.184h-41.025c-12.252 0-22.184 9.932-22.184 22.184S299.843 512 312.095 512z" data-original="#7776d0"></path><path fill="#d9ddff" d="M489.912 378.527h-34.323V234.001c0-110.089-89.501-199.653-199.512-199.653S56.564 123.912 56.564 234.001v144.526H22.24V234.001C22.24 104.973 127.139 0 256.076 0c128.938 0 233.836 104.973 233.836 234.001z" data-original="#d9ddff"></path><path fill="#7776d0" d="M78.574 230.17H43.683C19.558 230.17 0 249.728 0 273.853v74.66c0 24.125 19.558 43.683 43.683 43.683h34.891z" data-original="#7776d0"></path><path fill="#e8f3ff" d="M78.574 207.36c11.855 0 21.465 9.61 21.465 21.465v162.064c0 11.855-9.61 21.465-21.465 21.465s-21.465-9.61-21.465-21.465V228.825c0-11.854 9.61-21.465 21.465-21.465z" data-original="#e8f3ff"></path><path fill="#7776d0" d="M433.426 389.544h34.891c24.125 0 43.683-19.558 43.683-43.683v-74.66c0-24.125-19.558-43.683-43.683-43.683h-34.891z" data-original="#7776d0"></path><path fill="#e8f3ff" d="M433.426 412.354c-11.855 0-21.465-9.61-21.465-21.465V228.825c0-11.855 9.61-21.465 21.465-21.465s21.465 9.61 21.465 21.465v162.064c0 11.855-9.61 21.465-21.465 21.465z" data-original="#e8f3ff"></path><path fill="#ff8ccc" d="M256 203.713c59.809 0 108.294 48.476 108.294 108.274 0 31.53-13.484 59.908-34.996 79.697v28.548l-25.822-10.909c-14.336 7.003-30.445 10.938-47.475 10.938-59.809 0-108.294-48.476-108.294-108.274-.001-59.798 48.484-108.274 108.293-108.274z" data-original="#ff8ccc"></path><path fill="#ff78c2" d="M256 203.713c-7.045 0-13.933.673-20.604 1.958 49.955 9.62 87.69 53.562 87.69 106.317 0 51.665-38.735 96.404-87.988 106.259A108.87 108.87 0 0 0 256 420.263c17.03 0 33.139-3.935 47.475-10.938l25.822 10.909v-28.548c21.512-19.788 34.996-48.166 34.996-79.697.001-59.8-48.484-108.276-108.293-108.276z" data-original="#ff78c2"></path><g fill="#fff"><path d="M235.334 276.377h41.332a7.726 7.726 0 1 0 0-15.452h-41.332a7.726 7.726 0 1 0 0 15.452zM276.666 347.597h-41.332a7.726 7.726 0 1 0 0 15.452h41.332a7.726 7.726 0 1 0 0-15.452zM298.778 304.261h-85.556a7.726 7.726 0 1 0 0 15.452h85.556a7.726 7.726 0 1 0 0-15.452z" fill="#ffffff" data-original="#ffffff"></path></g><path fill="#ffd54d" d="M366.79 0c-50.886 0-92.137 41.243-92.137 92.12 0 26.826 11.472 50.97 29.775 67.806v24.289l21.97-9.281c12.197 5.958 25.903 9.306 40.392 9.306 50.886 0 92.137-41.244 92.137-92.12C458.927 41.243 417.676 0 366.79 0z" data-original="#ffd54d"></path><path fill="#ffc919" d="M366.79 0c-7.083 0-13.979.8-20.604 2.312 40.966 9.356 71.533 46.013 71.533 89.807 0 43.793-30.564 80.448-71.528 89.806a92.4 92.4 0 0 0 20.599 2.314c50.885 0 92.137-41.244 92.137-92.12S417.676 0 366.79 0z" data-original="#ffc919"></path><g fill="#fff"><path d="M399.747 64.407c-.891-17.177-15.07-30.904-32.28-31.251-16.739-.32-31.055 11.874-33.361 28.401a33.362 33.362 0 0 0-.318 4.595 7.726 7.726 0 1 0 15.452 0c0-.824.057-1.651.17-2.458 1.225-8.781 8.876-15.282 17.745-15.089 9.148.185 16.686 7.477 17.159 16.602.253 4.872-1.451 9.496-4.799 13.022-3.35 3.529-7.87 5.472-12.726 5.472a7.726 7.726 0 0 0-7.726 7.726v26.431a7.726 7.726 0 1 0 15.452 0v-19.63c6.136-1.488 11.805-4.722 16.206-9.358 6.296-6.63 9.501-15.318 9.026-24.463zM366.79 136.658c-9.943 0-9.96 15.453 0 15.453 9.943 0 9.96-15.453 0-15.453z" fill="#ffffff" data-original="#ffffff"></path></g></g></svg>