<svg id="Capa_1" enable-background="new 0 0 512 512" height="512" viewBox="0 0 512 512" width="512" xmlns="http://www.w3.org/2000/svg"><g><g><path d="m512 139.447-256 26.205-256-26.205v-39.545c0-11.495 9.318-20.813 20.813-20.813h470.374c11.495 0 20.813 9.318 20.813 20.813z" fill="#60b7ff"/></g><g><path d="m491.187 79.089h-31.22c11.495 0 20.813 9.318 20.813 20.813v53.924l31.22-14.379v-39.545c0-11.494-9.318-20.813-20.813-20.813z" fill="#26a6fe"/></g><g><path d="m491.187 432.911h-470.374c-11.495 0-20.813-9.319-20.813-20.813v-272.65h512v272.65c0 11.494-9.318 20.813-20.813 20.813z" fill="#eaf6ff"/></g><g><path d="m480.78 139.447v272.65c0 11.495-9.318 20.813-20.813 20.813h31.22c11.495 0 20.813-9.318 20.813-20.813v-272.65z" fill="#d8ecfe"/></g><g><path d="m190.224 198.764v-16.65c0-4.598 3.727-8.325 8.325-8.325h273.906c4.598 0 8.325 3.727 8.325 8.325v16.65c0 4.598-3.727 8.325-8.325 8.325h-273.906c-4.598 0-8.325-3.727-8.325-8.325z" fill="#60b7ff"/></g><g><path d="m472.455 173.789h-31.22c4.598 0 8.325 3.727 8.325 8.325v16.65c0 4.598-3.727 8.325-8.325 8.325h31.22c4.598 0 8.325-3.727 8.325-8.325v-16.65c0-4.598-3.727-8.325-8.325-8.325z" fill="#26a6fe"/></g><path d="m31.669 320.421h123.979c.29-.957.449-1.971.449-3.023v-133.203c0-5.747-4.659-10.406-10.406-10.406h-104.065c-5.747 0-10.407 4.659-10.407 10.406v133.203c0 1.052.16 2.066.45 3.023z" fill="#fd8087"/><g><circle cx="93.659" cy="235.187" fill="#fed2a4" r="30.179"/></g><g><path d="m155.648 320.421c-3.655-31.002-30.006-55.055-61.99-55.055s-58.335 24.054-61.99 55.055c1.295 4.272 5.262 7.384 9.957 7.384h104.065c4.697 0 8.663-3.111 9.958-7.384z" fill="#ffe177"/></g><g><path d="m155.648 320.421c-3.655-31.002-30.006-55.055-61.99-55.055-5.381 0-10.597.696-15.579 1.976 26.914 6.942 46.798 31.38 46.798 60.463h20.813c4.697 0 8.663-3.111 9.958-7.384z" fill="#ffd15b"/></g><g><path d="m231.024 245.809h-33.301c-4.142 0-7.5-3.358-7.5-7.5s3.358-7.5 7.5-7.5h33.301c4.142 0 7.5 3.358 7.5 7.5s-3.357 7.5-7.5 7.5z" fill="#b3dafe"/></g><g><path d="m295.545 279.11h-33.301c-4.142 0-7.5-3.358-7.5-7.5s3.358-7.5 7.5-7.5h33.301c4.142 0 7.5 3.358 7.5 7.5s-3.358 7.5-7.5 7.5z" fill="#b3dafe"/></g><g><path d="m295.545 345.711h-33.301c-4.142 0-7.5-3.358-7.5-7.5s3.358-7.5 7.5-7.5h33.301c4.142 0 7.5 3.358 7.5 7.5s-3.358 7.5-7.5 7.5z" fill="#b3dafe"/></g><g><path d="m360.065 279.11h-33.301c-4.142 0-7.5-3.358-7.5-7.5s3.358-7.5 7.5-7.5h33.301c4.142 0 7.5 3.358 7.5 7.5s-3.358 7.5-7.5 7.5z" fill="#b3dafe"/></g><g><path d="m428.748 245.809h-166.504c-4.142 0-7.5-3.358-7.5-7.5s3.358-7.5 7.5-7.5h166.504c4.142 0 7.5 3.358 7.5 7.5s-3.358 7.5-7.5 7.5z" fill="#b3dafe"/></g><g><path d="m231.024 312.411h-33.301c-4.142 0-7.5-3.358-7.5-7.5s3.358-7.5 7.5-7.5h33.301c4.142 0 7.5 3.358 7.5 7.5s-3.357 7.5-7.5 7.5z" fill="#b3dafe"/></g><g><path d="m428.748 312.411h-166.504c-4.142 0-7.5-3.358-7.5-7.5s3.358-7.5 7.5-7.5h166.504c4.142 0 7.5 3.358 7.5 7.5s-3.358 7.5-7.5 7.5z" fill="#b3dafe"/></g><g><g><path d="m473.28 409.191c-4.142 0-7.5-3.358-7.5-7.5v-33.301c0-4.142 3.358-7.5 7.5-7.5s7.5 3.358 7.5 7.5v33.301c0 4.142-3.357 7.5-7.5 7.5z" fill="#7a6d79"/></g><g><path d="m442.061 398.785c-4.142 0-7.5-3.358-7.5-7.5v-22.895c0-4.142 3.358-7.5 7.5-7.5s7.5 3.358 7.5 7.5v22.895c0 4.142-3.358 7.5-7.5 7.5z" fill="#7a6d79"/></g><g><path d="m410.842 409.191c-4.142 0-7.5-3.358-7.5-7.5v-33.301c0-4.142 3.358-7.5 7.5-7.5s7.5 3.358 7.5 7.5v33.301c0 4.142-3.358 7.5-7.5 7.5z" fill="#7a6d79"/></g><g><path d="m379.622 398.785c-4.142 0-7.5-3.358-7.5-7.5v-22.895c0-4.142 3.358-7.5 7.5-7.5s7.5 3.358 7.5 7.5v22.895c0 4.142-3.358 7.5-7.5 7.5z" fill="#7a6d79"/></g><g><path d="m348.403 398.785c-4.142 0-7.5-3.358-7.5-7.5v-22.895c0-4.142 3.358-7.5 7.5-7.5s7.5 3.358 7.5 7.5v22.895c0 4.142-3.358 7.5-7.5 7.5z" fill="#7a6d79"/></g><g><path d="m317.183 409.191c-4.142 0-7.5-3.358-7.5-7.5v-33.301c0-4.142 3.358-7.5 7.5-7.5s7.5 3.358 7.5 7.5v33.301c0 4.142-3.358 7.5-7.5 7.5z" fill="#7a6d79"/></g></g></g></svg>