<svg id="svg8" height="512" viewBox="0 0 135.46666 135.46667" width="512" xmlns="http://www.w3.org/2000/svg" xmlns:svg="http://www.w3.org/2000/svg"><clipPath id="clipPath15568"><rect id="rect15570" height="106.627" rx="6.287" ry="5.292" width="70.379" x="133.879" y="108.087"/></clipPath><g id="layer1" transform="translate(0 -161.533)"><g transform="matrix(.265 0 0 .265 0 161.533)"><path id="rect11215" d="m95.1875 342c-18.869998 0-30.694134 9.00751-34.75 25.125l-26.3125 104.5625c-4.055886 16.11757 6.6925 34.3125 23.3125 34.3125h395.56525c16.62002 0 28.80585-18.19493 24.75-34.3125l-26.3125-104.5625c-4.05589-16.11749-15.88003-25.125-34.75-25.125z" fill="#5bb774" paint-order="markers fill stroke"/><path id="path11371" d="m95.1875 342c-18.869998 0-30.694134 9.00751-34.75 25.125l-15.533203 61.72461h316.769533l22.15625-86.84961z" fill="#ffc45c" paint-order="markers fill stroke"/><path id="path11378" d="m44.904297 428.84961-10.779297 42.83789c-4.055886 16.11757 6.6925 34.3125 23.3125 34.3125h171.89062l20.67188-77.15039z" fill="#2196f3" paint-order="markers fill stroke"/><path id="path11357" d="m358.0293 342-14.9043 61.08594h-291.736328l-12.583984 50.0039h179.611312l-14.17773 52.91016h51.76172l14.17578-52.91016h92.09767c11.30068-.00063 21.1961-7.58133 24.13867-18.49218l22.95508-92.59766z" fill="#d9defb" font-variant-ligatures="normal" font-variant-position="normal" font-variant-caps="normal" font-variant-numeric="normal" font-variant-alternates="normal" font-variant-east-asian="normal" font-feature-settings="normal" font-variation-settings="normal" text-indent="0" text-align="start" text-decoration-line="none" text-decoration-style="solid" text-decoration-color="#000000" text-transform="none" text-orientation="mixed" white-space="normal" shape-padding="0" shape-margin="0" inline-size="0" isolation="auto" mix-blend-mode="normal" solid-color="#000000" solid-opacity="1" vector-effect="none" paint-order="markers fill stroke"/><path id="path11395" d="m217.00391 342c19.14311 23.00148 36.98654 37.92383 47.73242 37.92383 32.54629 0 63.78741-14.92255 91.09375-37.92383z" fill="#ffa14e" paint-order="markers fill stroke"/></g><path id="path11146" d="m107.73277 203.112c0 22.09108-31.040058 58.94291-39.999434 58.94291-8.243256 0-39.999436-36.85183-39.999435-58.94291-.000001-22.09108 17.908356-39.99944 39.999435-39.99944 22.091078 0 39.999434 17.90836 39.999434 39.99944z" fill="#f45558" paint-order="markers fill stroke"/><path id="path11393" d="m87.034453 204.92a15.714336 15.714336 0 0 1 -15.714336 15.71433 15.714336 15.714336 0 0 1 -15.714336-15.71433 15.714336 15.714336 0 0 1 15.714336-15.71434 15.714336 15.714336 0 0 1 15.714336 15.71434z" fill="#db375b" paint-order="markers fill stroke"/><path id="path11212" d="m83.447669 199.05606a15.714336 15.714336 0 0 1 -15.714336 15.71433 15.714336 15.714336 0 0 1 -15.714336-15.71433 15.714336 15.714336 0 0 1 15.714336-15.71434 15.714336 15.714336 0 0 1 15.714336 15.71434z" fill="#d9defb" paint-order="markers fill stroke"/><path id="path11407" d="m18.3235 258.1012v1.0584h2.1171v-1.0584zm5.2906 0v1.0584h2.1172v-1.0584zm5.2911 0v1.0584h2.1172v-1.0584zm5.2933 0v1.0584h2.1171v-1.0584zm5.291097 0v1.0584h2.117201v-1.0584zm5.2906 0v1.0584h2.117201v-1.0584zm5.293302 0v1.0584h2.117198v-1.0584zm5.2911 0v1.0584h2.116699v-1.0584z" fill="#ec4676" stroke-width=".265"/><path id="path11411" d="m72.879269 288.53372v1.0584h2.1172v-1.0584zm5.2933 0v1.0584h2.1171v-1.0584zm5.2906 0v1.0584h2.1172v-1.0584zm5.2911 0v1.0584h2.1172v-1.0584zm5.2933 0v1.0584h2.117096v-1.0584zm5.290596 0v1.0584h2.117205v-1.0584zm5.291105 0v1.0584h2.1172v-1.0584zm5.2933 0v1.0584h2.1171v-1.0584zm5.2911 0v1.0584h2.1172v-1.0584zm5.2906 0v1.0584h2.1172v-1.0584z" fill="#007858" stroke-width=".265"/></g></svg>