<svg xmlns="http://www.w3.org/2000/svg" version="1.1" xmlns:xlink="http://www.w3.org/1999/xlink" xmlns:svgjs="http://svgjs.com/svgjs" width="512" height="512" x="0" y="0" viewBox="0 0 480 480" style="enable-background:new 0 0 512 512" xml:space="preserve" class=""><g><path d="M388.152 177.2 360 160v-32a8 8 0 0 0-8-8h-57.352l-50.48-30.832a7.998 7.998 0 0 0-8.336 0L185.352 120H128a8 8 0 0 0-8 8v32l-28.168 17.184A8 8 0 0 0 88 184v168a8 8 0 0 0 8 8h288a8 8 0 0 0 8-8V184a7.997 7.997 0 0 0-3.848-6.8zM120 189.29l-8.648-5.29 8.648-5.273zm58.313 54.398L104 330.397V198.266zm13.824 8.449 43.695 26.703a7.998 7.998 0 0 0 8.336 0l43.695-26.703L366.61 344H113.391zM360 178.727l8.648 5.28L360 189.29zm-58.313 64.953L376 198.266v132.132zM240 105.375 263.953 120h-47.906zM136 136h208v63.063l-104 63.562-104-63.563zm0 0" fill="#ffffff" data-original="#000000" class=""></path><path d="M160 152h56v16h-56zM240 152h80v16h-80zM160 184h160v16H160zm0 0" fill="#ffffff" data-original="#000000" class=""></path><path d="M240 0C107.453 0 0 107.453 0 240s107.453 240 240 240 240-107.453 240-240C479.852 107.516 372.484.148 240 0zm0 464C116.29 464 16 363.71 16 240S116.29 16 240 16s224 100.29 224 224c-.14 123.652-100.348 223.86-224 224zm0 0" fill="#ffffff" data-original="#000000" class=""></path></g></svg>