<svg xmlns="http://www.w3.org/2000/svg" version="1.1" xmlns:xlink="http://www.w3.org/1999/xlink" xmlns:svgjs="http://svgjs.com/svgjs" width="512" height="512" x="0" y="0" viewBox="0 0 512 512" style="enable-background:new 0 0 512 512" xml:space="preserve" class=""><g><path d="M148.52 156.766c-4.399 0-8.602.843-12.461 2.375l118.636 78.824 118.532-79.77c-3.09-.93-6.36-1.43-9.747-1.43zM397.352 321.367V190.633c0-3.934-.676-7.711-1.914-11.227l-91.274 61.43 91.399 91.398a33.72 33.72 0 0 0 1.789-10.867zM267.594 265.441a23.346 23.346 0 0 1-12.875 3.88 23.333 23.333 0 0 1-13.063-4.005l-9.539-6.336-94.469 94.465a33.72 33.72 0 0 0 10.868 1.79H363.48c3.801 0 7.457-.63 10.868-1.79l-95.543-95.547zM114.648 190.633v130.734c0 3.797.63 7.453 1.79 10.863l90.187-90.183-90.785-60.32a33.68 33.68 0 0 0-1.192 8.906zm0 0" fill="#ffffff" data-original="#000000"></path><path d="M437.02 74.98C388.668 26.63 324.379 0 256 0c-56.941 0-111.152 18.52-155.629 52.691l.211-8.875c.195-8.28-6.355-15.156-14.64-15.351-8.305-.184-15.153 6.355-15.352 14.64l-.844 35.583c-.273 11.546 8.176 21.238 19.652 22.542l39.278 4.36c7.527 0 14.02-5.656 14.886-13.313.934-8.23-4.98-15.66-13.214-16.593l-9.254-1.051C159.883 45.672 206.785 30 256 30c60.367 0 117.121 23.508 159.805 66.195C458.492 138.88 482 195.633 482 256c0 28.39-5.191 56.07-15.434 82.266-3.015 7.714.793 16.414 8.508 19.43a14.92 14.92 0 0 0 5.457 1.034c5.996 0 11.66-3.62 13.977-9.542C506.113 319.495 512 288.144 512 256c0-68.379-26.629-132.668-74.98-181.02zM423.883 411.016l-39.79-4.657c-8.222-.964-15.679 4.93-16.644 13.157-.96 8.226 4.93 15.68 13.156 16.64l10.54 1.235C352.695 466.336 305.715 482 256 482c-60.367 0-117.121-23.508-159.805-66.195C53.508 373.12 30 316.367 30 256c0-37.25 9.25-74.168 26.754-106.762 3.918-7.297 1.18-16.39-6.121-20.308-7.297-3.922-16.39-1.184-20.313 6.117C10.484 171.988 0 213.813 0 256c0 68.379 26.629 132.668 74.98 181.02C123.332 485.37 187.621 512 256 512c56.965 0 110.797-18.191 154.7-51.785l-.15 7.027c-.171 8.281 6.4 15.14 14.684 15.313.106.004.215.004.32.004 8.137 0 14.817-6.512 14.993-14.688l.77-36.836c.218-10.226-7.278-18.836-17.434-20.02zm0 0" fill="#ffffff" data-original="#000000"></path></g></svg>