<svg id="Layer_1" enable-background="new 0 0 256 256" height="512" viewBox="0 0 256 256" width="512" xmlns="http://www.w3.org/2000/svg"><g><g><path d="m123.808 10.74-44.31 20.713c-3.767 1.76-6.08 5.774-5.807 10.066.77 12.056 3.691 36.77 14.751 55.206 13.951 23.255 31.274 29.341 37.338 30.814 1.463.353 2.978.353 4.44 0 6.063-1.473 23.387-7.559 37.338-30.814 11.061-18.435 13.981-43.151 14.751-55.206.273-4.292-2.042-8.306-5.807-10.066l-44.31-20.713c-2.666-1.248-5.719-1.248-8.384 0z" fill="#ffa91a"/><path d="m105.136 110.481c-.506 0-1.012-.19-1.401-.572-4.389-4.308-8.38-9.437-11.863-15.242-7.788-12.98-11.314-29.289-12.901-40.686-.152-1.094.611-2.104 1.705-2.256 1.096-.162 2.104.61 2.257 1.705 1.536 11.027 4.928 26.775 12.369 39.178 3.309 5.516 7.089 10.376 11.235 14.445.789.774.8 2.04.026 2.829-.391.399-.909.599-1.427.599zm-25.101-62.725c-1.022 0-1.894-.779-1.989-1.817l-.058-.645c-.095-1.101.721-2.069 1.821-2.164 1.093-.11 2.069.72 2.164 1.82l.056.623c.101 1.1-.709 2.073-1.809 2.174-.062.006-.124.009-.185.009z" fill="#ffc91d"/><path d="m176.502 31.453-17.236-8.057c2.079 2.066 3.24 5.019 3.043 8.123-.771 12.055-3.69 36.771-14.751 55.206-13.951 23.255-31.274 29.341-37.338 30.814-1.237.299-2.51.329-3.76.122 8.343 6.56 15.766 9.015 19.32 9.878 1.463.353 2.978.353 4.44 0 6.063-1.473 23.387-7.56 37.338-30.814 11.061-18.436 13.981-43.151 14.751-55.206.273-4.292-2.042-8.306-5.807-10.066z" fill="#f79219"/><path d="m176.502 31.453-7.977-3.729c2.544 2.064 4.005 5.339 3.785 8.795-.771 12.055-3.69 36.771-14.751 55.206-13.951 23.255-31.274 29.341-37.338 30.814-1.462.353-2.977.353-4.44 0-1.1-.267-2.575-.689-4.329-1.335 6.234 3.959 11.504 5.649 14.329 6.335 1.463.353 2.978.353 4.44 0 6.063-1.473 23.387-7.56 37.338-30.814 11.061-18.436 13.981-43.151 14.751-55.206.272-4.292-2.043-8.306-5.808-10.066z" fill="#ef7816"/><path d="m125.05 27.935-31.188 14.579c-2.652 1.239-4.279 4.064-4.088 7.085.542 8.486 2.598 25.881 10.383 38.857 9.82 16.368 22.012 20.652 26.28 21.689 1.03.249 2.096.249 3.125 0 4.268-1.037 16.461-5.321 26.28-21.689 7.785-12.976 9.84-30.372 10.383-38.857.192-3.021-1.437-5.846-4.088-7.085l-31.187-14.579c-1.876-.877-4.025-.877-5.9 0z" fill="#f1f2f2"/><path d="m162.138 42.514-17.762-8.303c1.272 1.431 1.978 3.359 1.849 5.388-.542 8.485-2.597 25.881-10.383 38.857-9.82 16.368-22.012 20.652-26.28 21.688-.061.015-.123.02-.184.033 7.214 6.923 14.074 9.242 17.058 9.967 1.03.249 2.096.249 3.125 0 4.268-1.037 16.461-5.321 26.28-21.688 7.785-12.976 9.84-30.372 10.383-38.857.193-3.02-1.436-5.846-4.086-7.085z" fill="#e6e7e8"/><path d="m125.94 88.811c-1.241 0-2.443-.462-3.368-1.305l-14.346-13.076c-2.041-1.86-2.188-5.022-.327-7.063 1.859-2.041 5.022-2.188 7.063-.327l10.302 9.39 17.157-22.615c1.668-2.199 4.805-2.63 7.006-.961 2.199 1.669 2.63 4.806.961 7.006l-20.465 26.975c-.849 1.118-2.129 1.829-3.527 1.957-.152.012-.304.019-.456.019z" fill="#414042"/></g><g><path d="m151.155 171.554c1.702-.622 3.204-1.819 4.18-3.511l5.543-9.601c.276-.478.112-1.09-.366-1.366l-40.797-23.554c-4.783-2.761-10.899-1.123-13.66 3.66l-3.609 6.25z" fill="#fcc4ae"/><g><path d="m179.551 128.422-77.254 44.603 34.434 59.642 33.082-19.1c6.393-3.691 11.678-9.031 15.303-15.462l25.999-15.01z" fill="#f2ad97"/><path d="m181.671 185.244h30.021v5.739h-30.021z" fill="#e59076" transform="matrix(.866 -.5 .5 .866 -67.707 123.544)"/><g><path d="m222.528 186.859 25.472-14.706-40.532-70.203-25.472 14.706c-3.826 2.209-5.137 7.102-2.928 10.928l32.532 56.347c2.209 3.826 7.102 5.137 10.928 2.928z" fill="#377de2"/><path d="m181.996 116.656.527-.304 28.184 48.817c1.585 2.745 5.095 3.685 7.84 2.101l19.975-11.533 9.478 16.416-25.472 14.706c-3.826 2.209-8.719.898-10.928-2.928l-32.532-56.347c-2.209-3.826-.898-8.719 2.928-10.928z" fill="#2266d3"/></g><path d="m182.248 193.134 2.87 4.97c-3.625 6.431-8.91 11.771-15.303 15.462l-33.082 19.1-2.87-4.97 33.082-19.1c6.393-3.691 11.678-9.031 15.303-15.462z" fill="#e59076"/></g><g><path d="m192.532 195.442-116.083-67.02-31.565 54.671 25.999 15.01c3.625 6.431 8.91 11.771 15.303 15.462l26.559 15.334 27.957 16.141c4.117 2.377 9.382.967 11.76-3.151 2.377-4.117.967-9.382-3.151-11.759l14.91 8.608c4.117 2.377 9.382.967 11.759-3.151 2.377-4.117.967-9.382-3.151-11.759l7.455 4.304c4.117 2.377 9.382.967 11.759-3.151s.966-9.382-3.151-11.76l-4.97-2.869c4.117 2.377 9.382.966 11.759-3.151 2.379-4.117.968-9.381-3.149-11.759z" fill="#fcc4ae"/><g><path d="m33.472 186.859-25.472-14.706 40.532-70.203 25.472 14.706c3.826 2.209 5.137 7.102 2.928 10.928l-32.532 56.347c-2.209 3.826-7.102 5.137-10.928 2.928z" fill="#377de2"/><path d="m74.004 116.656-.527-.304-28.184 48.817c-1.585 2.745-5.095 3.685-7.84 2.101l-19.975-11.533-9.478 16.416 25.472 14.706c3.826 2.209 8.719.898 10.928-2.928l32.532-56.347c2.209-3.826.898-8.719-2.928-10.928z" fill="#2266d3"/></g><g fill="#f2ad97"><path d="m176.989 232.706c-2.692 2.221-6.568 2.684-9.768.837l-32.927-19.01-3 5.196 32.927 19.01c4.117 2.377 9.382.967 11.76-3.151.529-.918.843-1.895 1.008-2.882z"/><path d="m193.053 222.1c-2.692 2.221-6.568 2.684-9.768.837l-40.382-23.315-3 5.196 40.382 23.315c4.117 2.377 9.382.967 11.759-3.151.53-.918.843-1.895 1.009-2.882z"/><path d="m196.691 204.32c-2.692 2.221-6.568 2.684-9.768.837l-35.412-20.445-3 5.196 35.412 20.445c4.117 2.377 9.382.966 11.759-3.151.53-.918.844-1.895 1.009-2.882z"/><g><path d="m56.448 173.103h5.739v30.021h-5.739z" transform="matrix(.5 -.866 .866 .5 -133.252 145.427)"/><path d="m143.702 239.845-54.646-31.249c-6.393-3.691-11.678-9.031-15.303-15.462l-2.87 4.97c3.625 6.431 8.91 11.771 15.303 15.462l54.516 31.475c4.117 2.377 9.382.966 11.76-3.151.53-.917.843-1.895 1.008-2.882-2.692 2.221-6.569 2.684-9.768.837z"/></g></g></g><g><path d="m115.298 245.041 13.047-7.532c4.117-2.377 5.528-7.642 3.151-11.759-2.377-4.117-7.642-5.528-11.759-3.151l-13.047 7.532c-4.117 2.377-5.528 7.642-3.151 11.759 2.377 4.117 7.642 5.528 11.759 3.151z" fill="#f2ad97"/><path d="m125.475 232.539-13.047 7.532c-3.241 1.871-7.173 1.366-9.868-.929.173.94.472 1.873.978 2.749 2.377 4.117 7.642 5.528 11.759 3.151l13.047-7.532c4.117-2.377 5.528-7.642 3.151-11.759-.506-.876-1.163-1.602-1.891-2.221.641 3.479-.887 7.137-4.129 9.009z" fill="#e59076"/><path d="m91.779 238.739 25.472-14.706c4.117-2.377 5.528-7.642 3.151-11.759-2.377-4.117-7.642-5.528-11.759-3.151l-25.472 14.706c-4.117 2.377-5.528 7.642-3.151 11.759 2.377 4.117 7.642 5.528 11.759 3.151z" fill="#f2ad97"/><path d="m114.382 219.063-25.472 14.706c-3.241 1.871-7.173 1.366-9.868-.929.173.94.472 1.873.978 2.749 2.377 4.117 7.642 5.528 11.759 3.151l25.472-14.706c4.117-2.377 5.528-7.642 3.151-11.759-.506-.876-1.163-1.602-1.891-2.221.641 3.479-.888 7.137-4.129 9.009z" fill="#e59076"/><path d="m75.715 228.133 30.442-17.576c4.117-2.377 5.528-7.642 3.151-11.759-2.377-4.117-7.642-5.528-11.759-3.151l-30.442 17.576c-4.117 2.377-5.528 7.642-3.151 11.759 2.377 4.117 7.642 5.528 11.759 3.151z" fill="#f2ad97"/><path d="m103.288 205.587-30.442 17.576c-3.241 1.871-7.173 1.366-9.868-.93.173.94.472 1.873.978 2.749 2.377 4.117 7.642 5.528 11.759 3.151l30.442-17.576c4.117-2.377 5.528-7.642 3.151-11.759-.506-.876-1.163-1.602-1.891-2.221.641 3.481-.888 7.139-4.129 9.01z" fill="#e59076"/><path d="m72.077 210.353 22.987-13.272c4.117-2.377 5.528-7.642 3.151-11.759-2.377-4.117-7.642-5.528-11.759-3.151l-22.987 13.272c-4.117 2.377-5.528 7.642-3.151 11.759 2.377 4.117 7.641 5.528 11.759 3.151z" fill="#f2ad97"/><path d="m92.195 192.111-22.987 13.271c-3.241 1.871-7.173 1.366-9.868-.929.173.94.472 1.873.978 2.749 2.377 4.117 7.642 5.528 11.759 3.151l22.987-13.271c4.117-2.377 5.528-7.642 3.151-11.76-.506-.876-1.163-1.602-1.891-2.221.64 3.481-.888 7.139-4.129 9.01z" fill="#e59076"/><g fill="#ffd2c0"><path d="m92.255 195.39 2.014-1.163c2.391-1.381 3.211-4.439 1.83-6.83l-.739-1.28c-1.381-2.391-4.439-3.211-6.83-1.83l-2.014 1.163c-.957.552-1.284 1.775-.732 2.732l3.739 6.476c.552.956 1.775 1.284 2.732.732z"/><path d="m103.349 208.865 2.014-1.163c2.391-1.381 3.211-4.439 1.83-6.83l-.739-1.28c-1.381-2.391-4.439-3.211-6.83-1.83l-2.906 1.678c-.464.268-.623.861-.355 1.325l4.254 7.368c.552.957 1.775 1.285 2.732.732z"/><path d="m114.442 222.341 2.014-1.163c2.391-1.381 3.211-4.439 1.83-6.83l-.739-1.28c-1.381-2.391-4.439-3.211-6.83-1.83l-2.014 1.163c-.957.552-1.284 1.775-.732 2.732l3.739 6.476c.552.956 1.776 1.284 2.732.732z"/><path d="m125.536 235.817 2.014-1.163c2.391-1.381 3.211-4.439 1.83-6.83l-.739-1.28c-1.381-2.391-4.439-3.211-6.83-1.83l-2.014 1.163c-.957.552-1.284 1.775-.732 2.732l3.739 6.476c.552.956 1.775 1.284 2.732.732z"/></g></g><path d="m119.387 166.471 35.6-20.554-5.043-8.735c-2.761-4.783-8.877-6.422-13.66-3.66l-40.797 23.554c-.478.276-.642.888-.366 1.366l1.043 1.807c4.695 8.131 15.092 10.917 23.223 6.222z" fill="#f2ad97"/><path d="m109.658 158.489 4.565-2.636c1.372-.792 1.843-2.547 1.05-3.92l-2.72-4.711-12.962 7.484.741 1.284c1.886 3.265 6.061 4.384 9.326 2.499z" fill="#ffd2c0"/></g></g></svg>