<svg id="Layer_1" enable-background="new 0 0 136 136" height="512" viewBox="0 0 136 136" width="512" xmlns="http://www.w3.org/2000/svg"><g><g><path d="m127.44 34.13c-15.86 31.08-32.52 61.77-49.93 92.02-1.21 2.1-3.81 2.88-5.84 1.76l-42.93-23.81c-2.07-1.15-2.75-3.85-1.52-5.99 17.34-30.13 33.92-60.69 49.72-91.64 1.14-2.24 3.83-3.13 5.93-1.96l42.93 23.81c1.99 1.11 2.72 3.68 1.64 5.81z" fill="#cedef5"/><path d="m28.73 104.09 7.02 3.89c18.76-32.8 36.78-66.01 54.05-99.62l-6.93-3.84c-2.1-1.17-4.78-.28-5.92 1.96-15.81 30.95-32.4 61.51-49.73 91.63-1.24 2.13-.55 4.83 1.51 5.98z" fill="#fd5797"/><g><g><path d="m73.13 58.73s0-.01.01-.01l20.21-37.42c.29-.53.09-1.19-.44-1.48s-1.18-.09-1.47.43c0 0 0 .01-.01.01l-20.22 37.42c-.29.53-.09 1.19.44 1.48s1.19.1 1.48-.43z" fill="#94959a"/></g><g><path d="m80.71 62.98s0-.01.01-.01l20.21-37.42c.29-.53.09-1.19-.44-1.48s-1.18-.09-1.47.43c0 0 0 .01-.01.01l-20.21 37.42c-.29.53-.09 1.19.44 1.48s1.18.09 1.47-.43z" fill="#94959a"/></g><g><path d="m88.3 67.23s0-.01.01-.01l20.21-37.42c.29-.53.09-1.19-.44-1.48-.53-.28-1.18-.09-1.47.43 0 0 0 .01-.01.01l-20.22 37.42c-.29.53-.09 1.19.44 1.48.53.28 1.19.09 1.48-.43z" fill="#94959a"/></g><g><path d="m95.88 71.47s0-.01.01-.01l20.21-37.42c.29-.53.09-1.19-.44-1.48-.53-.28-1.18-.09-1.47.43 0 0 0 .01-.01.01l-20.22 37.42c-.29.53-.09 1.19.44 1.48s1.19.1 1.48-.43z" fill="#94959a"/></g><g><path d="m68.78 67.25c.29-.52.11-1.18-.42-1.48-.52-.3-1.19-.11-1.49.41l-6.36 11.22c-.29.51-.11 1.19.41 1.49s1.19.11 1.49-.41l6.37-11.23c0 .01 0 .01 0 0z" fill="#94959a"/></g><g><path d="m76.44 71.36c.29-.52.11-1.18-.42-1.48-.52-.3-1.19-.11-1.49.41l-6.36 11.22v.01c-.29.52-.11 1.18.42 1.48.52.3 1.19.11 1.49-.41z" fill="#94959a"/></g><g><path d="m84.11 75.46c.29-.52.11-1.18-.42-1.48-.52-.3-1.19-.11-1.49.41l-6.36 11.22v.01c-.29.52-.11 1.18.42 1.48.52.3 1.19.11 1.49-.41z" fill="#94959a"/></g><g><path d="m91.77 79.56c.29-.52.11-1.18-.42-1.48-.52-.3-1.19-.11-1.49.41l-6.36 11.22v.01c-.29.52-.11 1.18.42 1.48.52.3 1.19.11 1.49-.41z" fill="#94959a"/></g></g><path d="m30.11 101.61 42.93 23.81c.68.38 1.58.07 2.01-.68 5.49-9.56 10.99-19.27 16.33-28.9 11.49-20.71 22.76-41.92 33.53-63.01.39-.76.15-1.68-.5-2.04l-2.55-1.41c-10.49 20.55-21.49 41.17-32.66 61.31-3.57 6.44-7.2 12.91-10.86 19.34-3.05 5.35-9.76 7.36-15.25 4.56l-32.52-16.65c-.31.53-.6 1.04-.9 1.57-.45.8-.23 1.73.44 2.1z" opacity=".05"/><g><path d="m60.91 52.66s0-.01.01-.01l20.21-37.42c.29-.53.09-1.19-.44-1.48s-1.18-.09-1.47.43c0 0 0 .01-.01.01l-20.21 37.42c-.29.53-.09 1.19.44 1.48s1.18.1 1.47-.43z" fill="#fff"/></g><g><path d="m56.42 60.4c.29-.52.11-1.18-.42-1.48-.52-.3-1.19-.11-1.49.41l-6.36 11.22c-.29.51-.11 1.19.41 1.49s1.19.11 1.49-.41z" fill="#fff"/></g><g><path d="m45.43 80.22c.29-.52.11-1.18-.42-1.48-.52-.3-1.19-.11-1.49.41l-6.36 11.22c-.29.51-.11 1.19.41 1.49s1.19.11 1.49-.41l6.37-11.23c-.01.01-.01.01 0 0z" fill="#fff"/></g><g fill="#fff"><path d="m28.73 104.09 1.42.79c6.39-3.96 12.75-7.94 18.51-12.76 3.18-2.65 6.4-5.65 10.47-6.42 6.45-1.21 12.59 3.58 19.15 3.74 6.18.14 11.8-3.94 15.41-8.96 3.6-5.04 5.64-10.98 8.1-16.65 2.45-5.68 5.58-11.35 10.63-14.91 2.59-1.83 5.81-2.94 8.97-3.05 2.02-3.91 4.05-7.82 6.04-11.74 1.09-2.13.35-4.69-1.65-5.8l-42.91-23.81c-2.1-1.17-4.78-.27-5.92 1.96-15.81 30.95-32.4 61.5-49.73 91.62-1.24 2.15-.55 4.84 1.51 5.99z" opacity=".15"/><path d="m39.06 77.26c8.93-6.36 19.97-10.01 30.6-13.28 3.76-1.15 7.66-2.38 10.55-5.07 4.63-4.32 5.66-11.55 10.36-15.82 4.7-4.28 11.72-4.45 17.76-6.49 5.6-1.9 10.5-5.52 14.48-9.93l-39.94-22.15c-2.1-1.17-4.78-.27-5.92 1.96-12.18 23.84-24.8 47.43-37.89 70.78z" opacity=".15"/><path d="m28.73 104.09 23.74 13.17c-.14-2.6.06-5.24.57-7.79 1.25-6.31 4.26-12.15 8-17.37 2.78-3.9 6.06-7.66 7.14-12.32 1.64-7.04-2.15-14.21-1.92-21.43.15-4.82 2.07-9.39 3.54-13.99 3.26-10.34 4.2-21.13 4.14-32.02-14.89 28.95-30.48 57.54-46.72 85.76-1.24 2.15-.55 4.84 1.51 5.99z" opacity=".15"/></g></g><g><path d="m80.13 127.19c1.01-28.55 1.28-57.13.83-85.7-.04-2.72-2.27-4.9-4.99-4.9h-62.13c-2.78 0-5.01 2.28-4.97 5.06.45 28.4.18 56.82-.82 85.2-.1 2.82 2.15 5.15 4.97 5.15h62.12c2.69 0 4.89-2.13 4.99-4.81z" fill="#36c"/><path d="m78.47 41.54c-.02-1.35-1.15-2.46-2.5-2.46h-2.24v62.13c0 12.47-10.11 22.57-22.57 22.57h-40.53c-.03 1.05-.05 2.11-.09 3.15-.02.68.22 1.33.7 1.82.47.49 1.1.76 1.78.76h62.12c1.34 0 2.45-1.06 2.5-2.41 1-28.38 1.28-57.17.83-85.56z" opacity=".1"/><path d="m81.01 91.2c-2.22-1.88-4.74-3.41-7.48-4.46-4.19-1.61-8.73-2.15-13.01-3.47-4.29-1.33-8.58-3.68-10.66-7.67-1.83-3.51-1.67-7.8-3.45-11.35-2.02-4.03-6.17-6.47-10.21-8.5-8.7-4.37-17.85-7.85-27.28-10.36-.01-1.24-.02-2.5-.05-3.75-.05-2.78 2.18-5.05 4.97-5.05h62.13c2.73 0 4.94 2.19 4.99 4.9.26 16.57.28 33.14.05 49.71z" fill="#fff" opacity=".1"/><g><g><path d="m42.61 101.5c-5.27 0-9.76-1.57-13.07-4.58-3.58-3.26-5.63-8.07-5.76-13.56-.25-10.15 6.31-21.3 19.34-23 5.53-.72 10.6.72 14.67 4.16 4.56 3.85 7.42 9.95 7.67 16.31.35 9.23-4.95 19.48-20.9 20.59-.67.05-1.32.08-1.95.08zm.82-38.67c-11.57 1.5-17.39 11.43-17.17 20.47.12 4.8 1.88 8.98 4.95 11.78 3.2 2.91 7.75 4.25 13.17 3.87 14.17-.99 18.89-9.95 18.58-18.01-.22-5.67-2.75-11.1-6.79-14.5-3.52-2.99-7.93-4.24-12.74-3.61z" fill="#cedef5"/></g><g><path d="m43.69 101.5c-1.55 0-3.01-.54-4.25-1.6-3.16-2.69-5.03-8.72-5.12-16.55-.11-9.75 2.76-21.09 9.33-22.94 1.71-.48 3.4-.15 4.88.96 4.21 3.13 6.23 12.05 6.36 19.51.16 9.17-2.43 19.39-10.17 20.56-.34.03-.69.06-1.03.06zm.64-38.71c-5.02 1.41-7.62 11.63-7.52 20.52.08 6.9 1.71 12.52 4.24 14.68.98.83 2.06 1.15 3.3.96 6.16-.93 8.19-10.31 8.05-18.05-.14-8.09-2.35-15.31-5.36-17.55-.86-.64-1.75-.82-2.71-.56z" fill="#cedef5"/></g><g><path d="m25.03 80.06h39.18v2.49h-39.18z" fill="#cedef5" transform="matrix(1 -.022 .022 1 -1.736 .977)"/></g><g><path d="m28.53 92.55h31.37v2.49h-31.37z" fill="#cedef5" transform="matrix(1 -.012 .012 1 -1.142 .547)"/></g><g><path d="m28.86 68.68h31.37v2.49h-31.37z" fill="#cedef5" transform="matrix(1 -.012 .012 1 -.85 .549)"/></g><g><path d="m25.22 79.58h38.72v2.49h-38.72z" fill="#cedef5" transform="matrix(.002 -1 1 .002 -36.34 125.244)"/></g></g><g><path d="m57.41 45.79h-25.6c-.69 0-1.24-.56-1.24-1.24 0-.69.56-1.24 1.24-1.24h25.59c.69 0 1.24.56 1.24 1.24.01.68-.55 1.24-1.23 1.24z" fill="#cedef5"/></g><g><path d="m65.46 53.3h-41.7c-.69 0-1.24-.56-1.24-1.24 0-.69.56-1.24 1.24-1.24h41.7c.69 0 1.24.56 1.24 1.24s-.55 1.24-1.24 1.24z" fill="#cedef5"/></g><path d="m67.64 118.49h-46.06c-.5 0-.91-.41-.91-.91v-3.5c0-.5.41-.91.91-.91h46.05c.5 0 .91.41.91.91v3.5c.01.51-.4.91-.9.91z" fill="#cedef5"/><g fill="#fff"><path d="m81.02 45.95c-3.14 2.83-5.76 6.25-7.78 9.97-3.83 7.08-5.59 15.14-6.11 23.18-.22 3.39-.64 7.46-3.68 8.96-1.24.62-2.7.65-4.06.98-3.11.76-5.63 3.15-7.18 5.94-1.56 2.79-2.27 5.96-2.81 9.11-.61 3.47-1.32 7.42-4.32 9.27-2.35 1.46-5.35 1.1-8.12 1.34-4.63.42-9.04 2.8-11.94 6.44-2.43 3.05-3.76 6.96-3.75 10.85h-8.25c-2.81 0-5.07-2.34-4.97-5.15 1-28.38 1.27-56.8.82-85.2-.05-2.78 2.18-5.05 4.97-5.05h62.13c2.73 0 4.94 2.19 4.99 4.9.02 1.49.05 2.98.06 4.46z" opacity=".1"/><path d="m66.28 36.59c-4.87 1.52-9.4 4.1-12.67 7.95-2.69 3.16-4.39 7.02-6.56 10.56-2.18 3.55-5.04 6.95-8.97 8.28-3.49 1.18-7.44.6-10.8 2.1-3.9 1.76-6.12 5.91-7.48 9.96-2.5 7.44-3.04 15.42-5.34 22.93-1.24 4.06-3.19 8.12-5.89 11.36.57-22.69.67-45.4.31-68.09-.05-2.78 2.18-5.05 4.97-5.05z" opacity=".1"/></g></g><g><path d="m110.46 90.9c-1.25 4.62-3.42 8.93-5.06 13.43-1.63 4.5-2.75 9.37-1.8 14.06h-12.42c.95-4.69-.17-9.56-1.8-14.06-1.64-4.5-3.81-8.81-5.06-13.43s-1.5-9.73.6-14.03c1.81-3.68 7.73-6.93 12.46-6.93 4.78 0 10.35 2.64 12.46 6.93 2.12 4.3 1.87 9.41.62 14.03z" fill="#ef8e49"/><path d="m109.2 91c-.79 2.91-1.92 5.67-3.14 8.58-.68 1.65-1.39 3.37-2.02 5.09-1.86 5.15-2.6 9.45-2.23 13.32h-2.68c-.36-3.87.37-8.17 2.23-13.32.63-1.72 1.34-3.44 2.03-5.09 1.21-2.91 2.34-5.67 3.13-8.58.97-3.59 1.67-8.78-.5-13.22-1.56-3.16-5.64-5.62-9.86-6.07.44-.06.87-.09 1.28-.09 4.69 0 9.53 2.65 11.26 6.16 2.17 4.44 1.47 9.64.5 13.22z" opacity=".1"/><g fill="#fff"><path d="m110.46 90.9c-.8 2.97-1.98 5.81-3.15 8.65-.17-.14-.35-.25-.54-.35-3.2-1.79-7.53-.9-10.45-3.13-1.97-1.51-2.79-4.11-2.98-6.58-.2-2.48.12-4.97-.14-7.45-.35-3.47-1.84-6.76-4-9.51 2.47-1.56 5.52-2.6 8.19-2.6 4.79 0 10.35 2.64 12.46 6.94s1.86 9.41.61 14.03z" opacity=".1"/><path d="m110.8 79.36c-2.1 1.76-4.19 3.51-6.29 5.26-1.01.85-2.06 1.74-2.55 2.96-.77 1.9-.03 4.04.18 6.08.26 2.61-.43 5.3-1.91 7.47-1.19 1.74-2.9 3.2-3.49 5.23-.46 1.55-.2 3.19-.15 4.8.07 2.47-.43 4.96-1.41 7.23h-3.98c.95-4.69-.17-9.56-1.8-14.06-1.64-4.5-3.81-8.81-5.06-13.43s-1.5-9.73.6-14.03c1.81-3.68 7.73-6.94 12.46-6.94 4.79 0 10.35 2.64 12.46 6.94.39.8.7 1.64.94 2.49z" opacity=".1"/><path d="m102.5 70.86c-.37 1.93-.74 3.87-1.11 5.81-.48 2.49-1.05 5.14-2.84 6.94-1.56 1.56-3.88 2.27-5.23 4.02-1.36 1.78-1.41 4.25-.99 6.45.43 2.2 1.28 4.32 1.5 6.55.32 3.21-.84 6.45-2.92 8.91-.38-1.76-.93-3.5-1.54-5.19-1.64-4.5-3.81-8.81-5.06-13.43s-1.5-9.73.6-14.03c1.81-3.68 7.73-6.94 12.46-6.94 1.69-.02 3.45.3 5.13.91z" opacity=".1"/></g><path d="m123.22 123.69-52 .2c-.57 0-1.03.46-1.03 1.03v3.91c0 1.75 1.42 3.17 3.18 3.17l47.73-.18c1.74-.01 3.15-1.42 3.15-3.17v-3.93c.01-.57-.46-1.03-1.03-1.03z" fill="#404042"/><path d="m66.58 127.23c-.08-1.01-.1-2.03-.06-3.04.13-3.49 3.01-6.26 6.5-6.26h48.41c3.5 0 6.38 2.76 6.5 6.26.04 1.01.02 2.03-.06 3.04-.08 1.05-.95 1.86-2 1.86h-57.29c-1.05 0-1.92-.82-2-1.86z" fill="#ffdf18"/><path d="m127.89 126.86c-3.29-1.88-7.18-2.71-10.95-2.24-2.61.33-5.22 1.23-7.8.75-2.76-.51-4.97-2.51-7.51-3.72-6.32-3.01-13.77-.85-20.76-1.32-3.29-.22-6.45-1.03-9.54-2.18.54-.15 1.11-.23 1.69-.23h48.41c3.49 0 6.37 2.77 6.5 6.26.04.9.02 1.79-.04 2.68z" fill="#fff" opacity=".1"/><path d="m122.87 118.09c-1.17.58-2.33 1.2-3.47 1.82-4.63 2.54-9.28 5.3-14.46 6.31-3.49.68-7.12.54-10.55 1.48-1.27.35-2.5.84-3.7 1.39h-22.11c-1.05 0-1.92-.82-2-1.87-.08-1.01-.1-2.02-.06-3.04.13-3.49 3.01-6.26 6.5-6.26h48.41c.49 0 .98.06 1.44.17z" fill="#fff" opacity=".1"/><path d="m127.37 127.18c-.06.79-.72 1.41-1.5 1.41h-57.29c-.74 0-1.38-.56-1.48-1.3.06.02.13.02.2.02h54.69c2.32 0 4.24-1.9 4.17-4.22 0-.08 0-.16-.01-.25-.05-1.2-.45-2.3-1.11-3.21 1.4 1.04 2.32 2.69 2.39 4.57.04.99.02 2-.06 2.98z" opacity=".1"/><path d="m126.14 119.95c-4.71 2.45-9.68 4.31-14.9 3.99-3.81-.23-7.61-1.63-11.36-.93-3.21.6-6 2.68-9.21 3.27-3.02.55-6.1-.27-9.13-.73-3.04-.46-6.41-.48-8.86 1.38-.83.64-1.51 1.47-2.31 2.16h-1.79c-1.05 0-1.92-.82-2-1.87-.08-1.01-.1-2.02-.06-3.04.13-3.49 3.01-6.26 6.5-6.26h48.41c1.85 0 3.53.78 4.71 2.03z" fill="#fff" opacity=".1"/></g></g></svg>