<svg height="512" viewBox="0 0 512 512" width="512" xmlns="http://www.w3.org/2000/svg" xmlns:xlink="http://www.w3.org/1999/xlink"><linearGradient id="New_Gradient_Swatch_copy_5" gradientUnits="userSpaceOnUse" x1="289.198" x2="289.198" y1="159.426" y2="202.971"><stop offset="0" stop-color="#1c1b29"/><stop offset=".055" stop-color="#252131"/><stop offset=".217" stop-color="#392f44"/><stop offset=".402" stop-color="#473952"/><stop offset=".627" stop-color="#4f3e5a"/><stop offset="1" stop-color="#52405c"/></linearGradient><linearGradient id="New_Gradient_Swatch_copy_4" gradientUnits="userSpaceOnUse" x1="306.472" x2="306.472" y1="256" y2="192"><stop offset="0" stop-color="#e6e6e6"/><stop offset=".39" stop-color="#e2e2e2"/><stop offset=".793" stop-color="#d5d5d5"/><stop offset="1" stop-color="#ccc"/></linearGradient><linearGradient id="New_Gradient_Swatch_copy_5-2" x1="127.059" x2="127.059" xlink:href="#New_Gradient_Swatch_copy_5" y1="200" y2="256"/><linearGradient id="New_Gradient_Swatch_copy_4-2" x1="224" x2="224" xlink:href="#New_Gradient_Swatch_copy_4" y1="320" y2="240"/><linearGradient id="linear-gradient" gradientUnits="userSpaceOnUse" x1="259.215" x2="259.215" y1="288" y2="384"><stop offset="0" stop-color="#fd8498"/><stop offset=".128" stop-color="#fd9b91"/><stop offset=".285" stop-color="#fdb08b"/><stop offset=".461" stop-color="#fdbf87"/><stop offset=".671" stop-color="#fdc785"/><stop offset="1" stop-color="#fdca84"/></linearGradient><linearGradient id="New_Gradient_Swatch_copy_5-3" x1="271.98" x2="271.98" xlink:href="#New_Gradient_Swatch_copy_5" y1="352" y2="480"/><linearGradient id="New_Gradient_Swatch_copy_2" gradientUnits="userSpaceOnUse" x1="256" x2="256" y1="464" y2="512"><stop offset="0" stop-color="#83bcc6"/><stop offset="1" stop-color="#cfe0e3"/></linearGradient><linearGradient id="New_Gradient_Swatch" gradientUnits="userSpaceOnUse" x1="88" x2="88" y1="48" y2="128"><stop offset="0" stop-color="#fd8498"/><stop offset="1" stop-color="#fdca84"/></linearGradient><g id="_23_Cruise" data-name="23 Cruise"><g id="Flat"><path d="m288.572 202.971-13.029-32.571a8 8 0 0 1 4.457-10.4 8 8 0 0 1 10.4 4.457l13.029 32.572z" fill="url(#New_Gradient_Swatch_copy_5)"/><path d="m356.944 256h-100.944v-64h68.944z" fill="url(#New_Gradient_Swatch_copy_4)"/><path d="m166.129 256h-50.658l-26.331-43.884a8 8 0 0 1 6.86-12.116h32a8 8 0 0 1 6.86 3.884z" fill="url(#New_Gradient_Swatch_copy_5-2)"/><path d="m384 320h-320v-24a56.063 56.063 0 0 1 56-56h243.278l20.722 54.531z" fill="url(#New_Gradient_Swatch_copy_4-2)"/><path d="m470.43 368v16h-422.43v-72a24.032 24.032 0 0 1 24-24h348.43z" fill="url(#linear-gradient)"/><path d="m512 352v33.89l-32 64v30.11h-420.97l-27.07-54.12v-73.88h128.04v8a8.011 8.011 0 0 0 8 8h144a8.011 8.011 0 0 0 8-8v-8z" fill="url(#New_Gradient_Swatch_copy_5-3)"/><rect fill="url(#New_Gradient_Swatch_copy_2)" height="48" rx="8" width="512" y="464"/><path d="m432 384h32v16h-32z" fill="#1c1b29"/><g fill="#f9d5aa"><path d="m450.43 336h-114.43v-16h104.43z"/><path d="m304 320h16v16h-16z"/><path d="m272 320h16v16h-16z"/><path d="m240 320h16v16h-16z"/><path d="m208 320h16v16h-16z"/><path d="m176 320h16v16h-16z"/><path d="m144 320h16v16h-16z"/><path d="m48 320h80v16h-80z"/></g><path d="m32 384h64v16h-64z" fill="#1c1b29"/><path d="m128 416v16h-92.98l-3.06-6.12v-9.88z" fill="#1c1b29"/><circle cx="88" cy="88" fill="url(#New_Gradient_Swatch)" r="40"/><path d="m80 0h16v16h-16z" fill="#fdca84"/><path d="m80 160h16v16h-16z" fill="#fdca84"/><path d="m0 80h16v16h-16z" fill="#fdca84"/><path d="m160 80h16v16h-16z" fill="#fdca84"/><path d="m23.431 23.431h16v16h-16z" fill="#fdca84" transform="matrix(.707 -.707 .707 .707 -13.019 31.432)"/><path d="m136.568 136.569h16v16h-16z" fill="#fdca84" transform="matrix(.707 -.707 .707 .707 -59.882 144.573)"/><path d="m136.569 23.431h16v16h-16z" fill="#fdca84" transform="matrix(.707 -.707 .707 .707 20.115 111.426)"/><path d="m23.431 136.569h16v16h-16z" fill="#fdca84" transform="matrix(.707 -.707 .707 .707 -93.016 64.563)"/><path d="m368 96a31.936 31.936 0 0 0 -24 10.855 31.987 31.987 0 0 0 -56 21.145h16a16 16 0 0 1 32 0h16a16 16 0 0 1 32 0h16a32.036 32.036 0 0 0 -32-32z" fill="#6e5982"/><path d="m512 64h-16a16 16 0 0 0 -32 0h-16a16 16 0 0 0 -32 0h-16a31.987 31.987 0 0 1 56-21.145 31.987 31.987 0 0 1 56 21.145z" fill="#6e5982"/><path d="m16 480h96v16h-96z" fill="#cfe0e3"/><path d="m128 480h16v16h-16z" fill="#cfe0e3"/><path d="m352 480h16v16h-16z" fill="#cfe0e3"/><path d="m496 480h16v16h-16z" fill="#cfe0e3"/><path d="m176 480h48v16h-48z" fill="#cfe0e3"/><path d="m432 480h48v16h-48z" fill="#cfe0e3"/><path d="m240 480h96v16h-96z" fill="#cfe0e3"/></g></g></svg>