<?xml version="1.0" encoding="iso-8859-1"?>
<!DOCTYPE svg PUBLIC "-//W3C//DTD SVG 1.0//EN" "http://www.w3.org/TR/2001/REC-SVG-20010904/DTD/svg10.dtd">
<!-- Creator: CorelDRAW -->
<svg xmlns="http://www.w3.org/2000/svg" xmlns:odm="http://product.corel.com/CGS/11/cddns/" xml:space="preserve" width="196.85in" height="59.0551in" style="shape-rendering:geometricPrecision; text-rendering:geometricPrecision; image-rendering:optimizeQuality; fill-rule:evenodd"
     viewBox="0 0 196850 59056">
 <defs>
  <style type="text/css">
   <![CDATA[
    .str0 {stroke:#1F1A17;stroke-width:3}
    .fil1 {fill:none}
    .fil0 {fill:#00923F}
    .fil2 {fill:#0093DD}
   ]]>
  </style>
 </defs>
 <g id="Layer 1">
  <path class="fil0 str0" d="M8792 33276c0,0 -669,7178 9124,375 4915,-3415 5707,-3998 5707,-3998 0,0 -1666,-1041 -1541,-1291 125,-250 541,-292 958,-125 416,167 1375,750 1375,750l2124 -2166 -3166 -1874 875 -791 833 208 625 -542 292 292 -292 458 500 292 542 -708 583 374 -500 500 875 542c0,0 1375,-1292 1708,-1583 333,-292 1541,-791 1625,-250 83,541 -125,1083 -917,1874 -791,791 -1000,1000 -1000,1000l459 1083 624 -417 209 500 -667 375 84 666 624 -292 125 584 -583 416 125 958 -583 833 -1792 -3249 -2208 1791c0,0 834,1833 667,2124 -167,292 -625,542 -1583,-1291 0,0 -11451,9605 -15165,7580 -1833,-1000 -1749,-3582 -666,-4998z"/>
  <path class="fil1 str0" d="M31159 24139c-16,19 -25,29 -25,29 0,0 12,-6 33,-15l-8 -14z"/>
  <path class="fil0 str0" d="M34761 8954c0,0 4359,-375 2563,4266 24,24 47,48 71,72 -288,691 -708,1488 -1288,2404 -23,3 -45,7 -67,10 -208,334 -439,685 -692,1053 20,-4 39,-7 59,-11 -177,254 -364,515 -563,786 -1216,1647 -2339,3050 -3165,4047 -1,-10 -2,-21 -3,-31 -343,417 -641,771 -881,1053 1,10 1,19 2,27 -315,367 -494,568 -494,568 810,-378 1426,-82 958,957 0,0 8626,-9077 8457,-13952 -41,-1207 -1958,-2873 -4957,-1249z"/>
  <path class="fil2 str0" d="M26751 9228c102,139 201,280 298,424 1254,2075 2194,4257 2798,6632 -3046,123 -5717,-11 -7960,-255 96,-473 2393,-9743 4864,-6801zm-5993 6664c-3952,-527 -6340,-1361 -6791,-1528 2377,-2969 5813,-5052 9734,-5674 -185,246 -1839,2535 -2943,7202zm7251 -7287c3637,428 6891,2106 9323,4594 -3,7 -5,14 -8,21 24,24 47,48 71,72 -288,691 -708,1488 -1288,2404 -23,3 -45,7 -67,10 -1,1 -2,3 -3,4 -1823,263 -3554,430 -5185,524 -920,-4164 -2131,-6486 -2835,-7571 -3,-19 -5,-39 -8,-58zm3159 14484c-120,140 -241,280 -364,421 -134,-27 -309,-5 -492,44l-373 -665c0,0 -4288,112 -8859,200 78,-1822 248,-3809 572,-5775 3052,311 5929,288 8460,102 545,2528 681,4597 710,5156 -9,11 -18,21 -27,31 1,10 1,19 2,27 -315,367 -494,568 -494,568 15,-8 31,-14 46,-21 -12,14 -19,21 -19,21 0,0 139,-65 326,-126 202,-47 379,-42 512,17zm536 -1537c-168,-1563 -382,-2963 -624,-4216 1619,-149 3077,-360 4323,-582 -176,252 -361,511 -559,780 -1204,1631 -2317,3022 -3140,4018zm-16464 13762c-621,-608 -1192,-1268 -1705,-1973 6,-3 12,-5 19,-7 3390,-1301 6042,-1398 6820,-1394 -675,471 -1486,1035 -2458,1711 -997,693 -1884,1238 -2676,1663zm7289 -4884l-1316 286c-37,-426 -252,-3027 -173,-6417 1034,5 2059,9 3036,12l-703 636 3166 1874 -2124 2166c0,0 -959,-583 -1375,-750 -417,-167 -833,-125 -958,125 -125,250 1541,1291 1541,1291 0,0 -211,156 -1094,777zm2351 -6116c87,0 173,0 258,0l-57 50 -201 -50zm989 1c259,1 511,1 756,1l-419 548 -500 -292 163 -257zm1128 1c785,0 1484,-2 2063,-6 -527,485 -1354,1262 -1354,1262l-875 -542 500 -500 -334 -214zm-14023 8201c-1525,-2398 -2414,-5241 -2432,-8290 1387,12 5246,43 9230,65 -32,2011 61,4231 326,6666l-7099 1542c0,0 -9,6 -25,17zm-2402 -9363c173,-2803 1085,-5407 2542,-7618 2496,814 4977,1335 7367,1643 -332,1704 -582,3678 -676,5934 -4092,74 -8116,120 -9233,41z"/>
 </g>
</svg>
