<?xml version="1.0" encoding="iso-8859-1"?>
<!DOCTYPE svg PUBLIC "-//W3C//DTD SVG 1.0//EN" "http://www.w3.org/TR/2001/REC-SVG-20010904/DTD/svg10.dtd">
<!-- Creator: CorelDRAW -->
<svg xmlns="http://www.w3.org/2000/svg" xmlns:odm="http://product.corel.com/CGS/11/cddns/" xml:space="preserve" width="19.685in" height="19.685in" style="shape-rendering:geometricPrecision; text-rendering:geometricPrecision; image-rendering:optimizeQuality; fill-rule:evenodd"
     viewBox="0 0 19686 19686">
 <defs>
  <style type="text/css">
   <![CDATA[
    .str0 {stroke:#FFFFFF;stroke-width:3}
    .fil0 {fill:#0093DD}
    .fil2 {fill:#605D5C}
    .fil1 {fill:#E77817}
   ]]>
  </style>
 </defs>
 <g id="Layer 1">
  <g>
   <path class="fil0 str0" d="M9113 1320c1950,0 3531,1566 3531,3497 0,1932 -1581,3497 -3531,3497 -1950,0 -3531,-1565 -3531,-3497 0,-1931 1581,-3497 3531,-3497zm580 6123c0,0 -18,45 -77,-14 -58,-58 32,-94 -27,-121 -58,-27 -31,-135 0,-139 32,-5 27,27 72,58 45,32 103,-36 166,36 63,72 32,126 126,63 94,-63 76,-22 117,-85 40,-63 40,-54 58,-126 18,-72 27,-99 77,-175 49,-77 31,-95 103,-117 72,-23 162,-36 220,-9 59,27 130,36 184,72 54,36 140,40 140,40 0,0 -18,-4 4,27 23,32 112,45 112,45 0,0 50,-4 63,14 14,18 59,-9 99,71 41,81 41,63 59,149 17,85 -5,85 22,152 27,68 63,108 63,108 0,0 -714,535 -1182,598 0,0 -251,-68 -274,-99 -22,-32 14,-40 -22,-103 -36,-63 -41,-99 -81,-131 -40,-31 -22,-161 -22,-161l0 -153zm2753 -3590c0,0 -72,14 -103,84 -31,69 -45,110 -25,164 0,0 9,24 -9,47 -18,22 16,54 34,38 18,-16 27,38 31,56 5,18 25,101 -15,92 -41,-9 -95,-34 -113,-65 -18,-31 -51,-94 -65,-112 -13,-18 -31,-56 -31,-56 0,0 -65,-337 -227,-420 -162,-84 -209,-99 -209,-99l-189 38c0,0 140,117 79,173 -61,56 -182,146 -198,173 -15,27 -222,130 -298,20 -77,-110 -70,-195 -70,-195 0,0 -43,-93 -97,-133 -53,-40 -67,-74 -76,-90 -9,-16 -65,-87 -90,-92 0,0 -20,72 7,117 27,45 43,117 45,164 0,0 220,337 254,400 33,63 206,220 292,206 85,-13 74,117 4,189 -69,72 -337,337 -339,400 -2,63 65,382 34,422 -32,41 -173,193 -211,214 0,0 44,137 6,170 -38,34 -56,61 -78,54 0,0 -38,54 -32,83 7,29 -202,274 -227,290 -24,16 -253,13 -278,11 -25,-2 -20,-13 -27,-54 -7,-40 20,-83 -23,-99 -40,-14 -113,-258 -114,-337 -1,-4 0,-7 0,-11 7,-63 -25,-63 -25,-63 0,0 -7,-18 -20,-35 -14,-18 -16,-398 16,-445 31,-47 -9,-113 -32,-140 -22,-26 -20,-53 -20,-53 0,0 -90,-101 -108,-122 -18,-20 -7,-90 9,-103 16,-14 16,-146 -45,-139 -60,6 -112,-43 -141,-83 -29,-41 -115,-7 -144,4 -29,11 -49,25 -72,29 -22,5 -126,5 -148,5 -23,0 -135,33 -157,2 -23,-31 -234,-220 -268,-296l-15 -61c0,0 -34,-72 38,-99l-7 -220c0,0 -31,-11 5,-72 35,-61 51,-99 51,-99 0,0 90,-135 106,-128 16,7 103,-36 103,-119 0,0 126,-144 166,-159 41,-16 104,-39 117,-39 14,0 83,-26 -7,-92 0,0 -71,39 -58,-65 13,-103 11,-175 72,-191 61,-15 164,0 164,0l-2 -85c0,0 -30,-54 -45,-58 -16,-5 -27,-14 -21,-30 7,-15 27,-33 3,-54 -25,-20 -16,-51 -16,-51 0,0 -83,-31 16,-117 0,0 58,7 76,-22 18,-30 63,56 63,56 0,0 40,-18 36,27 -5,45 7,85 36,51 29,-33 159,-105 159,-105 0,0 -11,-63 -2,-65 9,-3 9,-34 -31,-54 -41,-21 -59,-101 -45,-128 13,-27 49,-74 108,-74 0,0 199,-194 208,-196 9,-2 34,-11 34,-11l20 -20 216 2c0,0 43,34 54,45 11,11 137,-7 146,-2 9,4 -23,36 18,33 40,-2 110,-11 110,-11 0,0 56,-25 76,-4 20,20 45,42 47,20 3,-23 5,-43 5,-43l52 -22 116 9 16 9c0,0 1015,635 1325,1841zm-2417 -2136l348 -32c0,0 28,9 6,26 -23,16 -38,34 -38,34 0,0 15,-7 -1,18 -17,25 -46,63 -52,69 -6,6 -21,12 -36,-14 -15,-25 -51,-67 -68,-50 -16,16 -46,58 -72,25 -25,-33 -87,-76 -87,-76zm-771 33c0,0 -391,-122 -720,86 0,0 189,-10 159,59 -30,69 -30,73 -20,69 11,-5 -54,97 24,149 41,27 47,-25 63,-31 17,-6 44,-51 78,-75 34,-24 82,-42 106,-33 24,9 174,-64 205,-63 32,2 30,-28 32,-45 1,-16 49,-115 73,-116zm-1138 -210c0,0 -1029,302 -1698,1159 -207,265 -552,880 -525,943 0,0 98,45 143,27 45,-18 54,54 54,131 0,76 23,76 63,76 40,0 58,0 58,0 0,0 -13,22 36,49 50,27 86,5 126,5 41,0 95,18 18,-90 -76,-108 -31,-135 -31,-153 0,-18 0,-58 0,-58l0 -72 117 -126 238 -4c0,0 27,31 63,58 35,27 98,-9 98,-9 0,0 50,216 81,36 32,-180 5,-137 5,-137l45 -97c0,0 18,23 76,-9 58,-31 81,-67 81,-67l22 -45 113 -139 13 -32c0,0 117,0 121,-62 5,-63 -22,-252 -22,-252l-94 -81 -27 -18 -18 -67c0,0 22,-32 -14,-54 -36,-23 -9,-41 -58,-54 -50,-14 -108,-36 -108,-36 0,0 -49,-76 -5,-85 45,-9 104,-90 104,-90 0,0 31,40 103,-27 72,-68 85,4 85,4l63 9 77 -27 18 -36 58 -40c0,0 63,-112 85,-108 23,5 9,0 27,41 18,40 18,22 23,71 4,50 -23,32 4,54 27,23 185,86 185,86l36 -72c0,0 0,-36 35,-32 36,5 68,-27 86,-31 18,-5 72,9 31,-40 -40,-50 -49,-54 -72,-54 -22,0 -31,-90 -67,-95 -36,-4 -54,-31 -85,-63 -32,-31 -14,-18 22,-45 36,-26 99,-49 99,-49 0,0 27,-63 58,-31 32,31 54,54 54,54l45 0c0,0 -9,-113 -27,-135 -18,-23 -18,-81 -18,-81zm-1073 2776c0,0 53,112 4,198 -49,85 -90,67 -103,144 -14,76 -27,89 -9,107 18,18 -77,27 18,171 94,144 90,144 121,193 31,50 0,23 40,81 41,59 36,86 72,108 36,22 50,18 95,49 45,32 45,-36 63,45 18,81 40,1065 94,1128 54,63 81,117 175,31 94,-85 121,-85 157,-170 36,-86 45,-86 32,-126 -14,-41 27,-50 49,-50 23,0 77,41 77,-22 0,-63 -18,-36 0,-76 18,-41 22,-50 49,-50 27,0 31,9 72,-58 40,-68 99,-113 108,-180 9,-67 9,-31 9,-81 0,-49 -14,-67 31,-94 45,-27 41,-18 126,-59 85,-40 130,32 121,-94 -9,-126 -18,-229 0,-265 18,-36 45,-72 59,-103 13,-32 179,-106 31,-253 -148,-147 -112,-143 -216,-156 -103,-14 -184,-9 -224,-81 -41,-72 -41,-90 -86,-148 -45,-59 -67,-108 -161,-117 -95,-9 -95,23 -131,-49 -36,-72 -27,-144 -107,-149 -81,-4 -113,-13 -189,18 -76,32 -126,5 -202,9 -77,5 -175,99 -175,99z"/>
   <path class="fil1 str0" d="M4829 5619l-175 317 -834 -470 62 174 14 35 23 55 34 72 44 86 56 99 68 108 81 115 94 120 109 121 123 121 139 118 155 112 171 104 189 93 206 79 225 64 243 44 263 23 282 0 303 -26 323 -55 345 -86 366 -119 389 -155 412 -193 436 -234 460 -277 486 -323 511 -370 537 -421 564 -474 47 -42 48 -41 47 -42 47 -43 48 -43 48 -44 48 -45 49 -45 48 -45 49 -46 48 -46 49 -47 49 -47 49 -48 50 -48 49 -48 50 -49 49 -49 50 -50 50 -50 50 -50 49 -51 50 -50 51 -51 50 -52 50 -51 50 -52 50 -52 51 -52 50 -53 50 -52 50 -53 14 -15 14 -15 14 -14 13 -14 12 -14 13 -14 12 -14 12 -13 12 -14 12 -13 12 -13 11 -14 12 -13 11 -13 12 -13 11 -13 11 -13 12 -13 11 -13 12 -14 11 -13 12 -13 12 -14 13 -13 12 -14 13 -14 13 -14 13 -15 14 -14 14 -15 14 -15 22 -23 5 -10 1 -2 1 -4 2 -4 2 -5 2 -5 2 -7 2 -7 2 -8 2 -10 0 -11 0 -13 -4 -17 -10 -19 -17 -17 -22 -10 -21 -3 -18 1 -15 4 -14 6 -13 6 -13 8 -15 9 -15 11 -17 12 -18 15 -21 16 -22 19 -24 21 -26 23 -28 26 -30 29 -34 32 -36 35 -37 36 -39 39 -41 40 -43 42 -45 45 -46 45 -48 48 -49 48 -52 51 -52 51 -55 53 -56 54 -57 55 -59 56 -60 57 -61 57 -63 58 -64 59 -66 60 -66 59 -68 60 -69 61 -70 60 -71 61 -73 60 -73 60 -74 61 -75 59 -76 60 -77 59 -145 108 -148 110 -152 109 -155 110 -157 110 -161 109 -163 108 -165 108 -168 106 -170 104 -171 102 -173 100 -174 97 -175 95 -177 91 -177 87 -177 84 -178 80 -178 75 -177 71 -178 66 -177 60 -176 55 -175 49 -174 42 -172 37 -171 29 -169 22 -167 16 -165 7 -162 0 -160 -9 -58 -7 -57 -10 -55 -14 -54 -18 -53 -21 -51 -24 -50 -26 -49 -29 -47 -31 -45 -33 -44 -35 -43 -36 -41 -37 -38 -38 -38 -38 -35 -38 -34 -39 -31 -38 -30 -37 -28 -36 -25 -35 -24 -34 -21 -31 -20 -30 -17 -27 -15 -24 -13 -22 -10 -18 -8 -14 -6 -10 -3 -7 -56 -107z"/>
   <path class="fil0 str0" d="M12902 2112l1055 205 434 -344 -65 229 245 -139 532 -777 458 -393c0,0 196,-155 -66,-188 -261,-33 -319,0 -319,0l-785 548 -630 295 147 98 -270 204 -376 -8 -360 270zm1126 -118l1044 -836 -970 869 -74 -33z"/>
   <path class="fil2 str0" d="M1157 11782c-113,0 -209,-21 -289,-65l0 371c25,13 55,24 89,34 28,11 63,19 104,26 41,6 89,9 143,9 242,0 414,-78 516,-234 101,-155 152,-379 152,-670l0 -1661 -440 0 0 1661c0,113 -7,205 -19,274 -13,70 -31,123 -55,161 -23,37 -51,62 -85,75 -33,13 -72,19 -116,19z"/>
   <path class="fil2 str0" d="M14738 11525c-54,0 -101,-11 -139,-32l0 179c12,6 26,12 42,17 14,5 31,9 51,12 20,3 43,5 69,5 117,0 200,-38 249,-113 49,-75 73,-183 73,-324l0 -801 -212 0 0 801c0,55 -3,99 -10,133 -6,33 -15,59 -26,77 -11,18 -25,30 -41,36 -16,7 -35,10 -56,10z"/>
   <path class="fil2 str0" d="M15307 11262l213 0 0 -1332 -213 0 0 1332z"/>
   <path class="fil2 str0" d="M18111 9727l0 109 473 0 0 -109 -196 0c-32,0 -57,-10 -75,-31 -17,-20 -26,-47 -26,-81 0,-33 8,-59 24,-78 16,-19 36,-28 61,-28 24,0 45,9 61,25 16,17 25,38 26,63l120 0c-4,-68 -26,-116 -68,-145 -41,-29 -88,-44 -139,-44 -68,0 -120,17 -157,51 -37,33 -56,81 -56,143 0,20 4,40 12,61 8,21 18,39 31,53l0 11 -91 0z"/>
   <path class="fil2 str0" d="M18223 11262l212 0 0 -1332 -212 0 0 1332z"/>
   <path class="fil2 str0" d="M6134 11393c169,0 306,137 306,306 0,170 -137,307 -306,307 -169,0 -306,-137 -306,-307 0,-169 137,-306 306,-306z"/>
   <path class="fil2 str0" d="M6782 11393c169,0 306,137 306,306 0,170 -137,307 -306,307 -169,0 -306,-137 -306,-307 0,-169 137,-306 306,-306z"/>
   <path class="fil2 str0" d="M13789 8475l432 0 0 2764 -432 0 0 -2764z"/>
   <path class="fil2 str0" d="M16139 11269l0 -124 7 0c7,18 18,35 32,49 13,14 29,26 47,36 18,10 37,18 56,24 19,5 38,8 55,8l67 0 0 0 224 0c94,0 160,-33 196,-99l7 0c18,36 51,63 99,79 48,17 104,26 168,26 71,0 128,-9 172,-27 44,-18 78,-46 102,-83l7 0c7,18 16,34 30,47 14,13 29,24 45,33 16,9 33,15 50,18 18,4 34,6 49,6l447 0 0 -794 -212 0 0 602 -237 0c-13,0 -26,-2 -41,-6 -15,-5 -29,-13 -42,-24 -13,-11 -24,-26 -33,-44 -8,-19 -13,-43 -13,-71l0 -418 -212 0 0 423c0,29 -5,52 -14,71 -10,19 -22,34 -37,45 -15,11 -32,19 -52,23 -20,4 -41,7 -63,7 -24,0 -46,-3 -67,-7 -22,-4 -40,-12 -55,-22 -16,-11 -28,-25 -38,-42 -9,-18 -14,-39 -14,-65l0 -397 -212 0 0 382c0,28 -5,52 -13,71 -9,18 -20,33 -33,44 -13,11 -27,19 -42,24 -15,4 -28,6 -41,6l-125 0 0 0 -65 0c-27,0 -53,-2 -77,-6 -25,-5 -46,-13 -64,-26 -18,-12 -32,-28 -43,-49 -10,-20 -15,-47 -15,-79l0 -442 -213 0 0 801c0,55 -3,99 -9,133 -7,33 -15,59 -26,77 -12,18 -25,30 -41,36 -17,7 -35,10 -56,10 -55,0 -102,-11 -140,-32l0 179c12,6 26,12 43,17 13,5 30,9 50,12 20,3 43,5 69,5 117,0 200,-38 249,-113 49,-75 74,-183 74,-324z"/>
   <path class="fil2 str0" d="M6217 11246l-21 1 -3562 0 -6 -2 -4 -1 -7 -2 -9 -3 -11 -4 -13 -4 -15 -5 -16 -6 -18 -8 -19 -8 -20 -9 -21 -10 -21 -11 -23 -12 -22 -13 -23 -14 -23 -15 -23 -17 -22 -18 -22 -19 -21 -20 -21 -21 -20 -23 -18 -25 -17 -25 -15 -28 -14 -28 -11 -30 -10 -32 -6 -33 -5 -34 -1 -36 0 -2291 438 0 0 39 -1 17 0 28 -1 37 0 46 -1 54 -1 62 -1 68 -1 75 -1 80 0 85 -1 89 -1 92 -1 95 -1 96 0 98 -1 98 0 98 0 96 0 95 0 93 1 89 1 85 1 81 1 76 1 69 2 63 3 55 2 47 3 37 3 27 3 15 4 9 4 9 5 9 7 9 7 8 8 8 9 8 10 7 11 8 13 6 13 7 14 6 15 6 17 6 17 5 18 4 19 5 20 4 20 4 22 3 22 3 23 3 24 2 24 2 25 2 26 1 26 2 27 1 27 0 28 1 28 0 29 0 36 0 50 0 61 0 72 -1 83 0 92 -1 100 0 108 -1 114 -1 119 -1 125 -1 128 -1 131 -1 133 -1 133 -1 134 -1 133 -1 131 -1 128 -1 125 -1 119 0 115 -1 108 -1 100 -1 92 -1 83 0 73 -1 61 0 49 -1 37 0 22 0 1 0 1 -1 3 -2 4 -2 4 -3 4 -3 5 -4 5 -5 6 -5 6 -6 6 -7 6 -7 6 -9 6 -9 6 -10 7 -12 6 -12 6 -14 5 -14 6 -16 5 -17 5 -19 4 -20 4 -21 3 -22 3 -24 2 -26 1 -27 0 -28 0 -32 0 -34 0 -36 0 -38 0 -40 0 -41 0 -42 0 -43 -1 -45 0 -44 0 -46 0 -45 0 -45 -1 -45 0 -45 0 -43 0 -43 -1 -42 0 -40 0 -39 0 -36 -1 -35 0 -33 0 -30 0 -27 -1 -45 0 -18 0 -15 0 -10 0 -6 0 -36 416 -6 50 1337 0 1 1 2 1 4 1 4 1 4 2 5 2 5 3 6 3 7 3 6 4 7 4 7 5 7 6 7 6 7 7 7 7 7 8 7 9 6 9 6 11 6 11 6 12 5 13 5 15 4 15 4 16 3 18 2 19 1 20 1 2414 0 27 -2009 438 0 -5 1205 9 -14 26 -41 29 -44 33 -47 36 -50 40 -51 44 -52 47 -52 51 -51 54 -50 57 -49 61 -46 64 -42 68 -38 71 -34 74 -28 77 -22 80 -14 83 -7 86 1 89 11 91 21 94 31 95 42 98 54 100 67 102 79 41 35 37 35 36 35 33 34 32 35 29 36 26 35 25 36 23 36 20 37 18 37 16 37 14 37 12 38 10 39 7 39 6 39 3 40 2 41 0 41 -3 41 -4 42 -6 43 -8 43 -10 44 -12 44 -13 45 -15 46 -17 47 -18 48 -21 48 -1 3 7 0 23 1 26 0 30 1 32 0 34 1 36 0 39 0 39 0 41 0 42 0 42 0 42 0 43 -1 42 0 41 -1 41 -1 39 -2 38 -1 36 -2 34 -2 31 -3 29 -3 25 -3 21 -3 18 -4 10 -3 33 -20 0 -1 0 0 0 0 1 0 0 -1 1 0 0 0 1 -1 1 -1 1 0 1 -1 1 -1 1 -1 5 -5 5 -5 5 -5 5 -6 5 -6 4 -6 4 -7 5 -6 4 -7 4 -6 3 -7 4 -7 4 -7 3 -7 3 -8 3 -7 3 -7 3 -7 3 -8 3 -7 2 -7 3 -7 2 -7 2 -7 2 -7 3 -7 2 -7 2 -6 2 -6 1 -7 2 -6 2 -6 1 -2 1 -3 1 -2 1 -2 0 -1 2 -5 1 -6 1 -6 1 -6 1 -7 1 -6 1 -6 2 -7 1 -7 1 -6 1 -7 0 -7 1 -7 1 -7 1 -7 1 -8 1 -7 0 -7 1 -8 1 -8 0 -8 1 -8 0 -8 1 -8 0 -8 0 -8 1 -9 0 -8 0 -9 0 -9 0 -9 1 -40 0 -45 1 -51 0 -55 1 -59 0 -63 1 -66 1 -69 0 -72 1 -73 1 -75 1 -76 0 -76 1 -77 1 -76 1 -76 0 -74 1 -73 1 -71 1 -68 0 -65 1 -62 0 -59 1 -54 1 -49 0 -44 0 -39 1 -32 0 -26 0 -19 0 -12 1 -37 451 0 0 38 0 13 0 22 0 29 0 37 0 44 0 50 1 56 0 62 0 66 0 71 0 75 0 78 -1 81 0 84 0 85 0 87 -1 88 0 89 0 88 -1 88 -1 87 0 85 -1 84 -1 81 -1 78 -1 75 -2 70 -1 67 -2 61 -2 56 0 24 0 0 2 26 0 6 0 10 0 13 0 15 -1 19 -3 21 -3 23 -4 25 -6 26 -8 29 -10 29 -11 31 -14 31 -17 32 -20 32 -22 33 -26 31 -29 32 -32 30 -36 30 -40 28 -45 26 -48 25 -53 23 -57 20 -62 18 -67 15 -72 12 -77 9 -82 6 -88 2 -101 0 -121 -1 -140 0 -158 0 -173 0 -188 0 -200 0 -211 -1 -222 0 -229 0 -236 0 -240 -1 -244 0 -246 0 -247 -1 -245 0 -242 0 -238 -1 -232 0 -224 0 -216 -1 -204 0 -193 0 -179 -1 -164 0 -147 0 -129 0 -108 0 -88 0 -64 -1 -40 0 -16 0 -3 0 -2 -1 -3 0 -4 -1 -4 -1 -6 -1 -6 -2 -7 -1 -8 -2 -8 -3 -9 -3 -10 -3 -10 -3 -10 -4 -11 -4 -11 -5 -11 -5 -12 -5 -12 -6 -12 -7 -12 -7 -13 -7 -12 -8 -12 -9 -12 -9 -12 -10 -12 -11 -12 -11 -10 -10 -4 7 -6 8 -7 9 -7 8 -8 9 -9 9 -9 9 -10 9 -11 9 -12 9 -12 8 -13 8 -14 8 -15 7 -16 6 -16 6 -18 5 -18 4 -19 4 -19 2 -21 2zm3692 -434c0,0 578,-1557 1242,-1064 378,281 551,307 340,751 -151,318 -146,313 -146,313l-1436 0z"/>
   <path class="fil2 str0" d="M11976 14979c-23,84 -57,154 -101,208 -44,55 -112,82 -203,82 -50,0 -105,-6 -167,-18l35 313c73,16 147,24 223,24 75,0 142,-8 201,-24 60,-17 110,-39 150,-68 41,-29 77,-67 109,-113 31,-47 64,-114 98,-202l94 -263 527 -1455 -409 0 -348 1073 -356 -1073 -420 0 567 1516z"/>
   <path class="fil2 str0" d="M15032 14458c0,-267 10,-443 31,-527 21,-83 49,-141 85,-173 37,-32 81,-49 133,-49 54,0 112,23 175,69l116 -363c-79,-52 -161,-78 -246,-78 -60,0 -114,16 -161,50 -47,33 -101,103 -160,209l0 -224 -346 0 0 1572 373 0 0 -486z"/>
   <path class="fil2 str0" d="M6260 14931l0 -2169 -373 0 0 2169 373 0z"/>
   <path class="fil2 str0" d="M7926 14931l0 -1802 609 0 0 -367 -1635 0 0 367 611 0 0 1802 415 0z"/>
   <path class="fil2 str0" d="M10371 14979c-23,84 -57,154 -101,208 -44,55 -111,82 -203,82 -50,0 -105,-6 -167,-18l35 313c73,16 147,24 223,24 75,0 142,-8 201,-24 60,-17 110,-39 151,-68 40,-29 76,-67 108,-113 31,-47 64,-114 99,-202l94 -263 526 -1455 -409 0 -348 1073 -356 -1073 -419 0 566 1516z"/>
   <path class="fil2 str0" d="M9203 13539c0,0 -632,-539 -1008,383 -115,281 -31,1118 708,1040 121,-13 312,-147 344,-223 0,0 39,185 224,185 185,0 234,0 234,0l2 -249c0,0 -123,30 -123,-115 0,-145 -11,-1115 -11,-1115l-337 0c0,0 -16,86 -33,94zm35 916c0,0 12,-603 -16,-638 -29,-36 -410,-369 -643,79 -43,83 -148,599 172,737 93,40 235,120 487,-178z"/>
   <path class="fil2 str0" d="M14011 13539c0,0 -631,-539 -1008,383 -115,281 -31,1118 708,1040 121,-13 313,-147 345,-223 0,0 38,185 223,185 185,0 234,0 234,0l2 -249c0,0 -123,30 -123,-115 0,-145 -11,-1115 -11,-1115l-337 0c0,0 -16,86 -33,94zm35 916c0,0 13,-603 -16,-638 -29,-36 -410,-369 -643,79 -43,83 -148,599 172,737 93,40 235,120 487,-178z"/>
   <path class="fil2 str0" d="M4934 12762l-416 0 -757 2169 416 0 161 -493 777 0 170 493 427 0 -778 -2169zm-475 1311l262 -805 268 805 -530 0z"/>
  </g>
 </g>
</svg>
