<?xml version="1.0" standalone="no"?><svg xmlns="http://www.w3.org/2000/svg" viewBox="0 0 1440 320"><path fill="#17233E" fill-opacity="1" d="M0,192L24,181.3C48,171,96,149,144,128C192,107,240,85,288,74.7C336,64,384,64,432,90.7C480,117,528,171,576,192C624,213,672,203,720,170.7C768,139,816,85,864,106.7C912,128,960,224,1008,240C1056,256,1104,192,1152,165.3C1200,139,1248,149,1296,165.3C1344,181,1392,203,1416,213.3L1440,224L1440,320L1416,320C1392,320,1344,320,1296,320C1248,320,1200,320,1152,320C1104,320,1056,320,1008,320C960,320,912,320,864,320C816,320,768,320,720,320C672,320,624,320,576,320C528,320,480,320,432,320C384,320,336,320,288,320C240,320,192,320,144,320C96,320,48,320,24,320L0,320Z"></path></svg>